<svg id="Capa_1" enable-background="new 0 0 512 512" height="512" viewBox="0 0 512 512" width="512" xmlns="http://www.w3.org/2000/svg"><g><path d="m377 61h-106v-15c0-11.954-4.597-23.347-12.944-32.078-8.582-8.978-19.967-13.922-32.056-13.922h-60c-12.089 0-23.474 4.944-32.056 13.921-8.347 8.732-12.944 20.124-12.944 32.079v15h-106c-8.284 0-15 6.715-15 15v421c0 8.284 6.716 15 15 15h362c8.284 0 15-6.716 15-15v-421c0-8.285-6.716-15-15-15zm-226-15c0-8.523 7.01-16 15-16h60c7.99 0 15 7.476 15 16v15h-90zm211 436h-332v-391h332z"/><path d="m155.394 125.393-49.394 49.393-19.394-19.394c-5.857-5.858-15.355-5.858-21.213 0s-5.858 15.355 0 21.213l30 30c2.929 2.93 6.768 4.395 10.607 4.395s7.678-1.464 10.606-4.393l60-60c5.858-5.858 5.858-15.355 0-21.213-5.857-5.859-15.355-5.859-21.212-.001z"/><path d="m155.394 245.393-49.394 49.393-19.394-19.394c-5.857-5.858-15.355-5.858-21.213 0s-5.858 15.355 0 21.213l30 30c2.929 2.93 6.768 4.395 10.607 4.395s7.678-1.464 10.606-4.393l60-60c5.858-5.858 5.858-15.355 0-21.213-5.857-5.859-15.355-5.859-21.212-.001z"/><path d="m155.394 365.393-49.394 49.393-19.394-19.394c-5.857-5.858-15.355-5.858-21.213 0s-5.858 15.355 0 21.213l30 30c2.929 2.93 6.768 4.395 10.607 4.395s7.678-1.464 10.606-4.393l60-60c5.858-5.858 5.858-15.355 0-21.213-5.857-5.859-15.355-5.859-21.212-.001z"/><path d="m211 136v60c0 8.284 6.716 15 15 15h90c8.284 0 15-6.716 15-15v-60c0-8.284-6.716-15-15-15h-90c-8.284 0-15 6.715-15 15zm30 15h60v30h-60z"/><path d="m316 241h-90c-8.284 0-15 6.716-15 15v60c0 8.284 6.716 15 15 15h90c8.284 0 15-6.716 15-15v-60c0-8.285-6.716-15-15-15zm-15 60h-60v-30h60z"/><path d="m316 361h-90c-8.284 0-15 6.716-15 15v60c0 8.284 6.716 15 15 15h90c8.284 0 15-6.716 15-15v-60c0-8.285-6.716-15-15-15zm-15 60h-60v-30h60z"/><path d="m497 92c-41.355 0-75 33.645-75 75v227.574c0 29.227 10.61 56.82 30 78.392v24.034c0 8.284 6.716 15 15 15s15-6.716 15-15v-24.034c19.39-21.572 30-49.165 30-78.392v-287.574c0-8.284-6.716-15-15-15zm-15 32.57v147.43h-30v-105c0-19.556 12.539-36.239 30-42.43zm-15 319.017c-9.755-14.35-15-31.279-15-49.013v-92.574h30v92.574c0 17.734-5.245 34.662-15 49.013z"/></g></svg>